<svg width="1440" height="280" viewBox="0 0 1440 280" fill="none" xmlns="http://www.w3.org/2000/svg">
<path d="M0 273.42L24 256.602C48 239.785 96 206.15 144 198.88C192 191.719 240 210.815 288 211.575C336 212.334 384 194.541 432 190.092C480 185.535 528 194.215 576 198.555C624 202.895 672 202.895 720 208.32C768 213.745 816 224.595 864 217.217C912 209.731 960 184.124 1008 189.332C1056 194.54 1104 230.78 1152 228.61C1200 226.44 1248 185.86 1296 188.03C1344 190.2 1392 235.119 1416 257.47L1440 279.93V1.35899e-05H1416C1392 1.35899e-05 1344 1.35899e-05 1296 1.35899e-05C1248 1.35899e-05 1200 1.35899e-05 1152 1.35899e-05C1104 1.35899e-05 1056 1.35899e-05 1008 1.35899e-05C960 1.35899e-05 912 1.35899e-05 864 1.35899e-05C816 1.35899e-05 768 1.35899e-05 720 1.35899e-05C672 1.35899e-05 624 1.35899e-05 576 1.35899e-05C528 1.35899e-05 480 1.35899e-05 432 1.35899e-05C384 1.35899e-05 336 1.35899e-05 288 1.35899e-05C240 1.35899e-05 192 1.35899e-05 144 1.35899e-05C96 1.35899e-05 48 1.35899e-05 24 1.35899e-05H0V273.42Z" fill="#DC2626"/>
</svg>
