<svg width="1438" height="279" viewBox="0 0 1438 279" fill="none" xmlns="http://www.w3.org/2000/svg">
<path d="M-2 272.335L22 255.518C46 238.7 94 205.065 142 197.795C190 190.634 238 209.731 286 210.49C334 211.25 382 193.456 430 189.007C478 184.45 526 193.13 574 197.47C622 201.81 670 201.81 718 207.235C766 212.66 814 223.51 862 216.132C910 208.646 958 183.04 1006 188.248C1054 193.456 1102 229.695 1150 227.525C1198 225.355 1246 184.775 1294 186.945C1342 189.115 1390 234.034 1414 256.385L1438 278.845V-1.08499H1414C1390 -1.08499 1342 -1.08499 1294 -1.08499C1246 -1.08499 1198 -1.08499 1150 -1.08499C1102 -1.08499 1054 -1.08499 1006 -1.08499C958 -1.08499 910 -1.08499 862 -1.08499C814 -1.08499 766 -1.08499 718 -1.08499C670 -1.08499 622 -1.08499 574 -1.08499C526 -1.08499 478 -1.08499 430 -1.08499C382 -1.08499 334 -1.08499 286 -1.08499C238 -1.08499 190 -1.08499 142 -1.08499C94 -1.08499 46 -1.08499 22 -1.08499H-2V272.335Z" fill="#DC2626"/>
</svg>
