<svg id="visual" viewBox="0 0 900 600" width="900" height="600" xmlns="http://www.w3.org/2000/svg" xmlns:xlink="http://www.w3.org/1999/xlink" version="1.1">
<path d="M0 488L21.5 473.8C43 459.7 86 431.3 128.8 421.2C171.7 411 214.3 419 257.2 427C300 435 343 443 385.8 449C428.7 455 471.3 459 514.2 469.2C557 479.3 600 495.7 642.8 482.2C685.7 468.7 728.3 425.3 771.2 411.3C814 397.3 857 412.7 878.5 420.3L900 428L900 601L878.5 601C857 601 814 601 771.2 601C728.3 601 685.7 601 642.8 601C600 601 557 601 514.2 601C471.3 601 428.7 601 385.8 601C343 601 300 601 257.2 601C214.3 601 171.7 601 128.8 601C86 601 43 601 21.5 601L0 601Z" fill="#dc2626" stroke-linecap="round" stroke-linejoin="miter">
</path>
</svg>